<svg width="451" height="312" viewBox="0 0 451 312" fill="none" xmlns="http://www.w3.org/2000/svg">
<g filter="url(#filter0_d_106_3)">
<path d="M377.316 64.7978L404.514 182.636C406.721 192.195 400.76 201.733 391.2 203.94C389.897 204.24 388.564 204.393 387.226 204.394L128.704 204.706C116.616 204.722 105.965 196.769 102.545 185.175L67.446 66.1942C64.8555 57.4116 69.8747 48.1923 78.6573 45.6011C80.1558 45.159 81.7093 44.9309 83.2717 44.9236L350.648 43.6852C363.38 43.6261 374.453 52.3933 377.316 64.7978Z" fill="black"/>
</g>
<path d="M389.108 57.9077L429.474 234.517C431.829 244.822 425.384 255.086 415.078 257.441C414.056 257.675 413.017 257.824 411.971 257.887L94.5283 277.137C80.031 278.016 67.0698 268.16 64.0438 253.955L22.7154 59.9178C20.6599 50.2671 26.8173 40.7777 36.4679 38.7221C37.6325 38.4742 38.8189 38.3433 40.0095 38.3314L360.198 35.0978C373.999 34.9587 386.032 44.4527 389.108 57.9077V57.9077Z" fill="white"/>
<g filter="url(#filter1_iii_106_3)">
<path d="M389.108 57.9077L429.474 234.517C431.829 244.822 425.384 255.086 415.078 257.441C414.056 257.675 413.017 257.824 411.971 257.887L94.5283 277.137C80.031 278.016 67.0698 268.16 64.0438 253.955L22.7154 59.9178C20.6599 50.2671 26.8173 40.7777 36.4679 38.7221C37.6325 38.4742 38.8189 38.3433 40.0095 38.3314L360.198 35.0978C373.999 34.9587 386.032 44.4527 389.108 57.9077V57.9077Z" fill="white"/>
</g>
<path opacity="0.6" fill-rule="evenodd" clip-rule="evenodd" d="M77.2414 46.2787L348.594 43.9355L393.498 241.44L122.347 259.638L77.2414 46.2787Z" fill="#E9EDFA"/>
<path fill-rule="evenodd" clip-rule="evenodd" d="M63.4703 47.656L116.079 47.2015L162.848 257.186L108.576 261.015L63.4703 47.656Z" fill="url(#paint0_linear_106_3)"/>
<path fill-rule="evenodd" clip-rule="evenodd" d="M327.523 60.5772L146.168 64.7636C141.937 64.8414 139.326 68.7682 140.336 73.5357L146.512 102.666C147.523 107.433 151.771 111.203 156 111.087L337.227 104.76C341.457 104.644 344.077 100.875 343.08 96.3426L336.989 68.6442C335.992 64.1115 331.754 60.5001 327.523 60.5772V60.5772Z" fill="#DBE0F3"/>
<path d="M325.555 75.2378L215.325 77.9101C214.267 77.9328 213.614 78.903 213.865 80.0777L214.321 82.2046C214.573 83.3793 215.634 84.3116 216.692 84.2881L326.912 81.4513C327.97 81.4279 328.625 80.4818 328.375 79.3381L327.923 77.2677C327.673 76.1247 326.613 75.2158 325.555 75.2378V75.2378ZM274.685 87.2104L215.325 88.5944C214.268 88.6191 213.614 89.5783 213.864 90.7364L214.319 92.8345C214.569 93.9933 215.63 94.9111 216.687 94.885L276.043 93.4246C277.1 93.3984 277.754 92.4503 277.504 91.3066L277.053 89.2361C276.803 88.0931 275.743 87.1863 274.686 87.2104H274.685ZM201.327 88.9194L193.668 89.0984L195.72 98.7113L203.379 98.5185L201.327 88.92L201.327 88.9194ZM189.928 80.5948L182.267 80.76L186.147 98.9529L193.805 98.7601L189.928 80.5941V80.5948ZM180.809 82.942L173.149 83.1107L176.574 99.1953L184.233 99.0018L180.809 82.942V82.942ZM172.147 87.4438L164.488 87.6187L167.001 99.437L174.66 99.2435L172.148 87.4438H172.147ZM160.059 75.8403L152.399 75.9973L157.428 99.6787L165.087 99.4852L160.06 75.8403H160.059Z" fill="#F2F4FC"/>
<path fill-rule="evenodd" clip-rule="evenodd" d="M353.704 179.77L172.69 189.728C168.465 189.911 165.86 193.924 166.87 198.69L173.046 227.822C174.056 232.589 178.299 236.272 182.522 236.05L363.409 223.953C367.632 223.73 370.246 219.876 369.25 215.343L363.159 187.645C362.162 183.112 357.929 179.587 353.704 179.77V179.77Z" fill="#DBE0F3"/>
<path d="M294.498 208.846L239.921 211.763C238.948 211.814 238.347 212.809 238.578 213.984L238.996 216.113C239.227 217.289 240.202 218.199 241.174 218.146L295.748 215.151C296.72 215.097 297.322 214.114 297.092 212.953L296.675 210.852C296.445 209.692 295.47 208.794 294.498 208.846H294.498ZM355.264 205.633L300.686 208.549C299.713 208.601 299.112 209.597 299.343 210.772L299.761 212.9C299.992 214.076 300.967 214.986 301.94 214.933L356.513 211.937C357.485 211.884 358.087 210.9 357.857 209.74L357.44 207.639C357.211 206.479 356.236 205.58 355.264 205.632V205.633ZM222.422 203.985L215.378 204.348L218.949 222.774L225.99 222.383L222.421 203.985H222.422ZM215.298 213.113L208.256 213.489L210.148 223.263L217.189 222.872L215.298 213.113ZM204.184 201.633L197.14 201.991L201.345 223.752L208.387 223.361L204.183 201.633H204.184ZM196.01 205.346L188.967 205.709L192.543 224.242L199.585 223.85L196.01 205.346V205.346ZM188.679 213.434L181.637 213.808L183.742 224.731L190.783 224.34L188.679 213.433V213.434ZM338.296 195.125L236.969 201.057C235.996 201.106 235.396 202.113 235.627 203.304L236.047 205.463C236.278 206.655 237.254 207.58 238.227 207.529L339.546 201.429C340.518 201.379 341.12 200.397 340.89 199.237L340.473 197.136C340.244 195.976 339.269 195.075 338.296 195.125V195.125Z" fill="#F2F4FC"/>
<path fill-rule="evenodd" clip-rule="evenodd" d="M341.947 118.279L160.933 128.236C156.708 128.419 154.103 132.432 155.113 137.199L161.289 166.331C162.3 171.097 166.543 174.781 170.765 174.559L351.652 162.462C355.875 162.239 358.49 158.384 357.494 153.852L351.402 126.153C350.406 121.621 346.172 118.095 341.947 118.279Z" fill="#DBE0F3"/>
<path d="M338.884 130.401L228.842 136.247C227.786 136.296 227.134 137.288 227.385 138.463L227.841 140.59C228.093 141.764 229.152 142.676 230.209 142.625L340.241 136.615C341.298 136.564 341.951 135.597 341.701 134.453L341.249 132.383C341 131.24 339.941 130.352 338.884 130.401ZM292.941 144.963L233.669 147.837C232.614 147.888 231.961 148.868 232.212 150.026L232.666 152.124C232.916 153.283 233.975 154.18 235.031 154.127L294.298 151.175C295.355 151.123 296.008 150.154 295.758 149.01L295.306 146.939C295.056 145.796 293.998 144.911 292.941 144.962V144.963ZM214.224 141.722L206.576 142.079L210.453 160.237L218.101 159.852L214.224 141.722V141.722ZM206.488 150.717L198.84 151.088L200.894 160.719L208.541 160.334L206.488 150.717V150.717ZM194.418 139.404L186.768 139.756L191.335 161.202L198.983 160.816L194.418 139.403V139.404ZM185.542 143.062L177.892 143.42L181.776 161.684L189.424 161.298L185.542 143.062V143.062ZM177.58 151.033L169.931 151.402L172.217 162.167L179.865 161.781L177.58 151.033V151.033Z" fill="#F2F4FC"/>
<g filter="url(#filter2_dd_106_3)">
<path d="M101.485 69.1983C101.798 69.1143 101.986 68.7915 101.886 68.4828C101.252 66.5246 100.099 64.77 98.5462 63.4081C96.8457 61.9168 94.7412 60.9632 92.4987 60.668C90.2563 60.3728 87.9766 60.7491 85.9481 61.7495C83.9195 62.7499 82.2332 64.3293 81.1023 66.2881C79.9714 68.2469 79.4467 70.497 79.5946 72.754C79.7426 75.0109 80.5564 77.1733 81.9333 78.9678C83.3102 80.7622 85.1883 82.108 87.3301 82.835C89.2861 83.499 91.3817 83.6196 93.3947 83.1897C93.712 83.1219 93.8978 82.7982 93.8138 82.4847V82.4847C93.7298 82.1713 93.4079 81.9871 93.0902 82.053C91.3022 82.4239 89.4437 82.3116 87.7078 81.7223C85.7861 81.07 84.101 79.8625 82.8656 78.2524C81.6302 76.6424 80.8999 74.7022 80.7672 72.6771C80.6345 70.6521 81.1052 68.6331 82.1199 66.8756C83.1346 65.1181 84.6477 63.701 86.4678 62.8034C88.2879 61.9058 90.3333 61.5681 92.3453 61.833C94.3574 62.0979 96.2457 62.9535 97.7715 64.2915C99.1497 65.5002 100.176 67.0536 100.749 68.7875C100.851 69.0956 101.171 69.2823 101.485 69.1983V69.1983Z" fill="#355DFF"/>
</g>
<g filter="url(#filter3_dd_106_3)">
<path d="M99.1561 69.8222C99.3999 69.7569 99.5457 69.5059 99.4679 69.2658C98.9747 67.7427 98.0785 66.378 96.8706 65.3187C95.548 64.1588 93.9111 63.4172 92.167 63.1875C90.4229 62.9579 88.6498 63.2507 87.072 64.0287C85.4943 64.8068 84.1827 66.0352 83.3031 67.5587C82.4235 69.0822 82.0154 70.8323 82.1305 72.5878C82.2455 74.3432 82.8785 76.025 83.9495 77.4207C85.0204 78.8164 86.4811 79.8631 88.1469 80.4286C89.6683 80.945 91.2982 81.0388 92.8638 80.7044C93.1106 80.6517 93.2551 80.3999 93.1898 80.1561V80.1561C93.1245 79.9124 92.8741 79.769 92.627 79.8203C91.2363 80.1088 89.7908 80.0214 88.4407 79.5631C86.9461 79.0558 85.6354 78.1166 84.6745 76.8643C83.7137 75.6121 83.1457 74.103 83.0425 72.528C82.9392 70.9529 83.3054 69.3827 84.0946 68.0157C84.8838 66.6488 86.0606 65.5465 87.4763 64.8484C88.8919 64.1503 90.4828 63.8876 92.0477 64.0937C93.6126 64.2997 95.0813 64.9651 96.268 66.0059C97.34 66.946 98.1384 68.1541 98.5839 69.5027C98.663 69.7423 98.9123 69.8875 99.1561 69.8222V69.8222Z" fill="#355DFF"/>
</g>
<path d="M96.5447 86.0169L92.4108 70.5891L92.432 70.5834L102.353 78.8803L106.84 66.7229L106.861 66.7172L110.995 82.1449L109.975 82.4183L106.655 70.0293L102.79 80.4258L102.748 80.4372L94.2735 73.4609L97.5647 85.7436L96.5447 86.0169Z" fill="black"/>
<defs>
<filter id="filter0_d_106_3" x="51.7643" y="43.6848" width="366.209" height="209.022" filterUnits="userSpaceOnUse" color-interpolation-filters="sRGB">
<feFlood flood-opacity="0" result="BackgroundImageFix"/>
<feColorMatrix in="SourceAlpha" type="matrix" values="0 0 0 0 0 0 0 0 0 0 0 0 0 0 0 0 0 0 127 0" result="hardAlpha"/>
<feOffset dx="-1" dy="34"/>
<feGaussianBlur stdDeviation="7"/>
<feColorMatrix type="matrix" values="0 0 0 0 0.690196 0 0 0 0 0.737255 0 0 0 0 0.811765 0 0 0 0.397815 0"/>
<feBlend mode="normal" in2="BackgroundImageFix" result="effect1_dropShadow_106_3"/>
<feBlend mode="normal" in="SourceGraphic" in2="effect1_dropShadow_106_3" result="shape"/>
</filter>
<filter id="filter1_iii_106_3" x="22.3198" y="30.0963" width="408.639" height="247.096" filterUnits="userSpaceOnUse" color-interpolation-filters="sRGB">
<feFlood flood-opacity="0" result="BackgroundImageFix"/>
<feBlend mode="normal" in="SourceGraphic" in2="BackgroundImageFix" result="shape"/>
<feColorMatrix in="SourceAlpha" type="matrix" values="0 0 0 0 0 0 0 0 0 0 0 0 0 0 0 0 0 0 127 0" result="hardAlpha"/>
<feOffset dx="1" dy="-5"/>
<feGaussianBlur stdDeviation="2.5"/>
<feComposite in2="hardAlpha" operator="arithmetic" k2="-1" k3="1"/>
<feColorMatrix type="matrix" values="0 0 0 0 0.0529157 0 0 0 0 0.78016 0 0 0 0 0.546836 0 0 0 0.0482337 0"/>
<feBlend mode="normal" in2="shape" result="effect1_innerShadow_106_3"/>
<feColorMatrix in="SourceAlpha" type="matrix" values="0 0 0 0 0 0 0 0 0 0 0 0 0 0 0 0 0 0 127 0" result="hardAlpha"/>
<feOffset dx="1" dy="-5"/>
<feGaussianBlur stdDeviation="2.5"/>
<feComposite in2="hardAlpha" operator="arithmetic" k2="-1" k3="1"/>
<feColorMatrix type="matrix" values="0 0 0 0 0.737255 0 0 0 0 0.737255 0 0 0 0 0.831373 0 0 0 0.3 0"/>
<feBlend mode="normal" in2="effect1_innerShadow_106_3" result="effect2_innerShadow_106_3"/>
<feColorMatrix in="SourceAlpha" type="matrix" values="0 0 0 0 0 0 0 0 0 0 0 0 0 0 0 0 0 0 127 0" result="hardAlpha"/>
<feOffset dx="1" dy="-4"/>
<feGaussianBlur stdDeviation="3"/>
<feComposite in2="hardAlpha" operator="arithmetic" k2="-1" k3="1"/>
<feColorMatrix type="matrix" values="0 0 0 0 0.704021 0 0 0 0 0.749081 0 0 0 0 0.836017 0 0 0 0.408882 0"/>
<feBlend mode="normal" in2="effect2_innerShadow_106_3" result="effect3_innerShadow_106_3"/>
</filter>
<filter id="filter2_dd_106_3" x="75.5702" y="60.5702" width="30.3425" height="30.8718" filterUnits="userSpaceOnUse" color-interpolation-filters="sRGB">
<feFlood flood-opacity="0" result="BackgroundImageFix"/>
<feColorMatrix in="SourceAlpha" type="matrix" values="0 0 0 0 0 0 0 0 0 0 0 0 0 0 0 0 0 0 127 0" result="hardAlpha"/>
<feOffset dy="4"/>
<feGaussianBlur stdDeviation="2"/>
<feComposite in2="hardAlpha" operator="out"/>
<feColorMatrix type="matrix" values="0 0 0 0 0.207843 0 0 0 0 0.364706 0 0 0 0 1 0 0 0 0.25 0"/>
<feBlend mode="normal" in2="BackgroundImageFix" result="effect1_dropShadow_106_3"/>
<feColorMatrix in="SourceAlpha" type="matrix" values="0 0 0 0 0 0 0 0 0 0 0 0 0 0 0 0 0 0 127 0" result="hardAlpha"/>
<feOffset dy="4"/>
<feGaussianBlur stdDeviation="2"/>
<feComposite in2="hardAlpha" operator="out"/>
<feColorMatrix type="matrix" values="0 0 0 0 0 0 0 0 0 0 0 0 0 0 0 0 0 0 0.25 0"/>
<feBlend mode="normal" in2="effect1_dropShadow_106_3" result="effect2_dropShadow_106_3"/>
<feBlend mode="normal" in="SourceGraphic" in2="effect2_dropShadow_106_3" result="shape"/>
</filter>
<filter id="filter3_dd_106_3" x="78.1114" y="63.1115" width="25.3775" height="25.7892" filterUnits="userSpaceOnUse" color-interpolation-filters="sRGB">
<feFlood flood-opacity="0" result="BackgroundImageFix"/>
<feColorMatrix in="SourceAlpha" type="matrix" values="0 0 0 0 0 0 0 0 0 0 0 0 0 0 0 0 0 0 127 0" result="hardAlpha"/>
<feOffset dy="4"/>
<feGaussianBlur stdDeviation="2"/>
<feComposite in2="hardAlpha" operator="out"/>
<feColorMatrix type="matrix" values="0 0 0 0 0.207843 0 0 0 0 0.364706 0 0 0 0 1 0 0 0 0.25 0"/>
<feBlend mode="normal" in2="BackgroundImageFix" result="effect1_dropShadow_106_3"/>
<feColorMatrix in="SourceAlpha" type="matrix" values="0 0 0 0 0 0 0 0 0 0 0 0 0 0 0 0 0 0 127 0" result="hardAlpha"/>
<feOffset dy="4"/>
<feGaussianBlur stdDeviation="2"/>
<feComposite in2="hardAlpha" operator="out"/>
<feColorMatrix type="matrix" values="0 0 0 0 0 0 0 0 0 0 0 0 0 0 0 0 0 0 0.25 0"/>
<feBlend mode="normal" in2="effect1_dropShadow_106_3" result="effect2_dropShadow_106_3"/>
<feBlend mode="normal" in="SourceGraphic" in2="effect2_dropShadow_106_3" result="shape"/>
</filter>
<linearGradient id="paint0_linear_106_3" x1="75.0489" y1="49.0352" x2="214.075" y2="184.908" gradientUnits="userSpaceOnUse">
<stop stop-color="#545783"/>
<stop offset="1" stop-color="#363A6D"/>
</linearGradient>
</defs>
</svg>
